<svg id="svg" viewBox="0 0 804 592" fill="none" xmlns="http://www.w3.org/2000/svg">
<g clip-path="url(#clip0)">
<path d="M798.604 35.0628H4.44832C3.26895 35.0615 2.13825 34.5925 1.30431 33.7585C0.470363 32.9246 0.00128906 31.7939 0 30.6145V4.4483C0.00128906 3.26893 0.470363 2.13823 1.30431 1.30429C2.13825 0.47035 3.26895 0.00128641 4.44832 0H798.604C799.783 0.00128906 800.914 0.470365 801.748 1.30431C802.582 2.13825 803.051 3.26893 803.052 4.4483V30.6145C803.051 31.7939 802.582 32.9246 801.748 33.7585C800.914 34.5925 799.783 35.0615 798.604 35.0628Z" fill="#E4E4E4"/>
<path d="M25.8155 22.5706C29.3035 22.5706 32.131 19.7431 32.131 16.2551C32.131 12.7672 29.3035 9.93964 25.8155 9.93964C22.3275 9.93964 19.5 12.7672 19.5 16.2551C19.5 19.7431 22.3275 22.5706 25.8155 22.5706Z" fill="white"/>
<path d="M49.7871 22.5706C53.275 22.5706 56.1026 19.7431 56.1026 16.2551C56.1026 12.7672 53.275 9.93964 49.7871 9.93964C46.2991 9.93964 43.4716 12.7672 43.4716 16.2551C43.4716 19.7431 46.2991 22.5706 49.7871 22.5706Z" fill="white"/>
<path d="M73.7597 22.5706C77.2477 22.5706 80.0752 19.7431 80.0752 16.2551C80.0752 12.7672 77.2477 9.93964 73.7597 9.93964C70.2718 9.93964 67.4442 12.7672 67.4442 16.2551C67.4442 19.7431 70.2718 22.5706 73.7597 22.5706Z" fill="white"/>
<path d="M775.117 11.9083H747.513C746.971 11.9071 746.452 11.6911 746.07 11.3078C745.687 10.9245 745.473 10.405 745.473 9.86353C745.473 9.32201 745.687 8.80262 746.07 8.41928C746.452 8.03595 746.971 7.81998 747.513 7.81879H775.117C775.659 7.8184 776.179 8.03313 776.562 8.4158C776.946 8.79848 777.162 9.31781 777.163 9.8597C777.164 10.4016 776.95 10.9217 776.568 11.3058C776.186 11.6899 775.667 11.9066 775.125 11.9083H775.117Z" fill="white"/>
<path d="M775.117 19.5761H747.513C746.971 19.5749 746.452 19.3589 746.07 18.9756C745.687 18.5922 745.473 18.0728 745.473 17.5313C745.473 16.9898 745.687 16.4704 746.07 16.0871C746.452 15.7037 746.971 15.4878 747.513 15.4866H775.117C775.659 15.4862 776.179 15.7009 776.562 16.0836C776.946 16.4663 777.162 16.9856 777.163 17.5275C777.164 18.0694 776.95 18.5895 776.568 18.9736C776.186 19.3577 775.667 19.5744 775.125 19.5761H775.117Z" fill="white"/>
<path d="M775.117 27.2439H747.513C746.971 27.2439 746.45 27.0285 746.067 26.645C745.684 26.2616 745.468 25.7415 745.468 25.1992C745.468 24.6569 745.684 24.1368 746.067 23.7533C746.45 23.3698 746.971 23.1544 747.513 23.1544H775.117C775.659 23.1534 776.18 23.3679 776.564 23.7506C776.948 24.1333 777.165 24.653 777.166 25.1953C777.167 25.7376 776.952 26.2581 776.569 26.6423C776.187 27.0265 775.667 27.2429 775.125 27.2439H775.117Z" fill="white"/>
<path d="M226.443 519.964C229.365 496.466 243.928 473.313 266.338 465.666C257.5 489.853 257.502 516.385 266.344 540.57C269.787 549.885 274.587 559.887 271.348 569.274C269.333 575.116 264.402 579.585 258.891 582.379C253.38 585.174 247.263 586.506 241.224 587.811L240.035 588.794C230.446 567.143 223.521 543.462 226.443 519.964Z" fill="#F0F0F0"/>
<path d="M266.561 466.111C253.51 480.734 245.399 499.097 243.379 518.592C242.869 522.781 243.024 527.024 243.836 531.166C244.757 535.174 246.735 538.863 249.564 541.848C252.146 544.685 255.115 547.287 256.962 550.702C257.882 552.464 258.419 554.401 258.538 556.385C258.656 558.369 258.354 560.356 257.651 562.215C256.02 566.893 252.806 570.706 249.533 574.326C245.898 578.344 242.06 582.461 240.515 587.789C240.328 588.435 239.337 588.106 239.524 587.462C242.212 578.192 251.21 572.927 255.501 564.578C257.504 560.682 258.344 556.159 256.467 552.047C254.825 548.451 251.766 545.764 249.127 542.915C246.324 540.043 244.267 536.528 243.136 532.678C242.116 528.592 241.799 524.361 242.198 520.168C242.946 510.715 245.175 501.437 248.805 492.676C252.892 482.653 258.664 473.404 265.87 465.328C266.316 464.828 267.004 465.615 266.561 466.111L266.561 466.111Z" fill="white"/>
<path d="M243.66 512.276C240.435 511.493 237.593 509.59 235.643 506.905C233.692 504.22 232.759 500.93 233.01 497.621C233.022 497.486 233.085 497.361 233.187 497.272C233.289 497.183 233.421 497.137 233.557 497.143C233.692 497.15 233.819 497.209 233.912 497.308C234.004 497.407 234.055 497.537 234.053 497.673C233.813 500.754 234.682 503.819 236.504 506.315C238.326 508.811 240.98 510.574 243.987 511.285C244.64 511.441 244.309 512.431 243.66 512.276Z" fill="white"/>
<path d="M248.065 540.582C253.89 537.104 258.19 531.559 260.107 525.052C260.297 524.407 261.287 524.735 261.098 525.379C259.09 532.147 254.604 537.909 248.535 541.514C247.956 541.858 247.49 540.924 248.065 540.582Z" fill="white"/>
<path d="M253.861 483.642C255.045 484.205 256.351 484.465 257.661 484.398C258.971 484.332 260.244 483.941 261.365 483.261C261.94 482.91 262.405 483.845 261.835 484.193C260.592 484.939 259.186 485.368 257.739 485.445C256.292 485.522 254.848 485.243 253.533 484.633C253.405 484.586 253.299 484.491 253.237 484.369C253.175 484.247 253.163 484.105 253.201 483.974C253.245 483.843 253.339 483.734 253.463 483.672C253.586 483.61 253.729 483.599 253.861 483.642Z" fill="white"/>
<path d="M334.647 507.637C334.295 507.866 333.943 508.095 333.59 508.333C328.871 511.436 324.411 514.918 320.255 518.744C319.929 519.035 319.603 519.334 319.286 519.633C309.372 528.957 301.276 540.041 295.408 552.32C293.077 557.208 291.122 562.267 289.559 567.452C287.401 574.613 285.631 582.549 281.359 588.406C280.92 589.023 280.444 589.611 279.932 590.168H241.326C241.239 590.124 241.15 590.089 241.062 590.045L239.521 590.115C239.583 589.842 239.653 589.56 239.715 589.287C239.75 589.129 239.794 588.97 239.829 588.812C239.856 588.706 239.882 588.6 239.9 588.503C239.908 588.468 239.917 588.433 239.926 588.406C239.944 588.31 239.97 588.221 239.988 588.133C240.375 586.557 240.775 584.98 241.186 583.403C241.186 583.395 241.186 583.395 241.194 583.386C244.211 571.342 248.646 559.699 254.406 548.7C254.583 548.374 254.759 548.039 254.953 547.713C257.62 542.845 260.681 538.202 264.104 533.832C265.987 531.445 267.989 529.155 270.103 526.97C275.576 521.337 281.901 516.599 288.846 512.93C302.692 505.62 318.723 502.819 333.52 507.284C333.899 507.399 334.269 507.514 334.647 507.637Z" fill="#F0F0F0"/>
<path d="M334.561 508.127C315.337 511.945 297.804 521.723 284.454 536.073C281.525 539.111 279.094 542.592 277.249 546.388C275.571 550.143 274.929 554.279 275.391 558.366C275.744 562.185 276.548 566.051 275.967 569.89C275.641 571.851 274.903 573.72 273.803 575.376C272.704 577.031 271.266 578.436 269.586 579.497C265.467 582.25 260.605 583.359 255.812 584.278C250.491 585.299 244.947 586.275 240.506 589.599C239.968 590.002 239.374 589.143 239.912 588.741C247.639 582.958 257.993 584.172 266.446 580.089C270.391 578.184 273.785 575.079 274.762 570.665C275.616 566.805 274.791 562.818 274.399 558.954C273.891 554.974 274.365 550.929 275.78 547.174C277.425 543.297 279.719 539.728 282.562 536.621C288.851 529.523 296.217 523.457 304.39 518.647C313.688 513.106 323.865 509.196 334.481 507.086C335.138 506.956 335.213 507.998 334.561 508.127H334.561Z" fill="white"/>
<path d="M288.481 531.2C286.377 528.633 285.255 525.402 285.313 522.084C285.372 518.766 286.608 515.577 288.801 513.086C289.247 512.584 290.049 513.252 289.602 513.755C287.556 516.071 286.405 519.042 286.356 522.132C286.308 525.221 287.366 528.227 289.339 530.605C289.767 531.123 288.906 531.714 288.481 531.2Z" fill="white"/>
<path d="M274.956 556.453C281.701 557.183 288.472 555.344 293.921 551.303C294.461 550.902 295.054 551.76 294.515 552.161C288.837 556.355 281.787 558.255 274.77 557.48C274.101 557.405 274.291 556.379 274.956 556.453Z" fill="white"/>
<path d="M313.866 514.478C314.472 515.641 315.359 516.635 316.445 517.37C317.531 518.106 318.782 518.56 320.087 518.693C320.756 518.758 320.566 519.785 319.901 519.719C318.46 519.566 317.078 519.063 315.876 518.253C314.675 517.443 313.69 516.351 313.008 515.073C312.933 514.957 312.905 514.818 312.93 514.683C312.954 514.549 313.029 514.428 313.139 514.347C313.253 514.268 313.394 514.238 313.53 514.263C313.666 514.288 313.786 514.365 313.866 514.478L313.866 514.478Z" fill="white"/>
<path d="M260.293 182.444H132.568C128.62 182.44 124.836 180.87 122.046 178.079C119.255 175.288 117.685 171.504 117.68 167.557V97.9913C117.685 94.0444 119.255 90.2604 122.046 87.4695C124.837 84.6786 128.621 83.1089 132.568 83.1046H260.293C264.24 83.1089 268.024 84.6786 270.815 87.4695C273.606 90.2603 275.176 94.0443 275.18 97.9913V167.557C275.176 171.504 273.606 175.288 270.815 178.079C268.024 180.87 264.24 182.44 260.293 182.444V182.444Z" fill="#E6E6E6"/>
<path d="M455.293 182.444H327.568C323.621 182.44 319.836 180.87 317.046 178.079C314.255 175.288 312.685 171.504 312.68 167.557V97.9913C312.685 94.0444 314.255 90.2604 317.046 87.4695C319.837 84.6786 323.621 83.1089 327.568 83.1046H455.293C459.24 83.1089 463.024 84.6786 465.815 87.4695C468.606 90.2603 470.176 94.0443 470.18 97.9913V167.557C470.176 171.504 468.606 175.288 465.815 178.079C463.024 180.87 459.24 182.44 455.293 182.444Z" fill="#6C63FF"/>
<path d="M650.293 182.444H522.568C518.62 182.44 514.836 180.87 512.045 178.079C509.255 175.288 507.685 171.504 507.68 167.557V97.9913C507.685 94.0444 509.255 90.2604 512.046 87.4695C514.836 84.6786 518.621 83.1089 522.568 83.1046H650.293C654.24 83.1089 658.024 84.6786 660.815 87.4695C663.606 90.2603 665.176 94.0443 665.18 97.9913V167.557C665.176 171.504 663.606 175.288 660.815 178.079C658.024 180.87 654.24 182.44 650.293 182.444Z" fill="#E6E6E6"/>
<path d="M260.293 337.444H132.568C128.62 337.44 124.836 335.87 122.046 333.079C119.255 330.288 117.685 326.504 117.68 322.557V252.991C117.685 249.044 119.255 245.26 122.046 242.47C124.837 239.679 128.621 238.109 132.568 238.105H260.293C264.24 238.109 268.024 239.679 270.815 242.47C273.606 245.26 275.176 249.044 275.18 252.991V322.557C275.176 326.504 273.606 330.288 270.815 333.079C268.024 335.87 264.24 337.44 260.293 337.444Z" fill="#F2F2F2"/>
<path d="M455.293 337.444H327.568C323.621 337.44 319.836 335.87 317.046 333.079C314.255 330.288 312.685 326.504 312.68 322.557V252.991C312.685 249.044 314.255 245.26 317.046 242.47C319.837 239.679 323.621 238.109 327.568 238.105H455.293C459.24 238.109 463.024 239.679 465.815 242.47C468.606 245.26 470.176 249.044 470.18 252.991V322.557C470.176 326.504 468.606 330.288 465.815 333.079C463.024 335.87 459.24 337.44 455.293 337.444Z" fill="#E6E6E6"/>
<path d="M464.312 350.245C476.91 350.245 487.124 340.032 487.124 327.433C487.124 314.834 476.91 304.621 464.312 304.621C451.713 304.621 441.499 314.834 441.499 327.433C441.499 340.032 451.713 350.245 464.312 350.245Z" fill="#6C63FF"/>
<path d="M473.784 325.517H466.028V317.761C466.028 317.522 465.981 317.284 465.889 317.063C465.798 316.841 465.663 316.64 465.494 316.471C465.324 316.301 465.123 316.167 464.902 316.075C464.68 315.983 464.443 315.936 464.203 315.936V315.936C463.964 315.936 463.726 315.983 463.505 316.075C463.283 316.167 463.082 316.301 462.913 316.471C462.743 316.64 462.609 316.841 462.517 317.063C462.425 317.284 462.378 317.522 462.378 317.761V325.517H454.622C454.382 325.517 454.145 325.565 453.924 325.656C453.702 325.748 453.501 325.882 453.332 326.052C453.162 326.221 453.028 326.423 452.936 326.644C452.844 326.866 452.797 327.103 452.797 327.342V327.342C452.797 327.582 452.844 327.82 452.936 328.041C453.028 328.262 453.162 328.464 453.332 328.633C453.501 328.803 453.702 328.937 453.924 329.029C454.145 329.12 454.382 329.168 454.622 329.168H462.378V336.924C462.378 337.163 462.425 337.401 462.517 337.622C462.609 337.844 462.743 338.045 462.913 338.214C463.082 338.384 463.283 338.518 463.505 338.61C463.726 338.702 463.964 338.749 464.203 338.749V338.749C464.687 338.749 465.152 338.557 465.494 338.214C465.836 337.872 466.028 337.408 466.028 336.924V329.168H473.784C474.024 329.168 474.261 329.12 474.483 329.029C474.704 328.937 474.905 328.802 475.075 328.633C475.244 328.464 475.379 328.262 475.471 328.041C475.562 327.819 475.61 327.582 475.609 327.342V327.342C475.61 327.103 475.562 326.865 475.471 326.644C475.379 326.423 475.244 326.221 475.075 326.052C474.905 325.882 474.704 325.748 474.483 325.656C474.261 325.565 474.024 325.517 473.784 325.517V325.517L473.784 325.517Z" fill="white"/>
<path d="M662.312 199.245C674.91 199.245 685.124 189.032 685.124 176.433C685.124 163.834 674.91 153.621 662.312 153.621C649.713 153.621 639.499 163.834 639.499 176.433C639.499 189.032 649.713 199.245 662.312 199.245Z" fill="#6C63FF"/>
<path d="M671.784 174.517H664.028V166.761C664.028 166.522 663.981 166.284 663.889 166.063C663.798 165.841 663.663 165.64 663.494 165.471C663.324 165.301 663.123 165.167 662.902 165.075C662.68 164.983 662.443 164.936 662.203 164.936V164.936C661.964 164.936 661.726 164.983 661.505 165.075C661.283 165.167 661.082 165.301 660.913 165.471C660.743 165.64 660.609 165.841 660.517 166.063C660.425 166.284 660.378 166.522 660.378 166.761V174.517H652.622C652.382 174.517 652.145 174.565 651.924 174.656C651.702 174.748 651.501 174.882 651.332 175.052C651.162 175.221 651.028 175.423 650.936 175.644C650.844 175.866 650.797 176.103 650.797 176.342V176.342C650.797 176.582 650.844 176.82 650.936 177.041C651.028 177.262 651.162 177.464 651.332 177.633C651.501 177.803 651.702 177.937 651.924 178.029C652.145 178.12 652.382 178.168 652.622 178.168H660.378V185.924C660.378 186.163 660.425 186.401 660.517 186.622C660.609 186.844 660.743 187.045 660.913 187.214C661.082 187.384 661.283 187.518 661.505 187.61C661.726 187.702 661.964 187.749 662.203 187.749V187.749C662.687 187.749 663.152 187.557 663.494 187.214C663.836 186.872 664.028 186.408 664.028 185.924V178.168H671.784C672.024 178.168 672.261 178.12 672.483 178.029C672.704 177.937 672.905 177.802 673.075 177.633C673.244 177.464 673.379 177.262 673.471 177.041C673.562 176.819 673.61 176.582 673.609 176.342V176.342C673.61 176.103 673.562 175.865 673.471 175.644C673.379 175.423 673.244 175.221 673.075 175.052C672.905 174.882 672.704 174.748 672.483 174.656C672.261 174.565 672.024 174.517 671.784 174.517V174.517L671.784 174.517Z" fill="white"/>
<path d="M269.312 197.245C281.91 197.245 292.124 187.032 292.124 174.433C292.124 161.834 281.91 151.621 269.312 151.621C256.713 151.621 246.499 161.834 246.499 174.433C246.499 187.032 256.713 197.245 269.312 197.245Z" fill="#6C63FF"/>
<path d="M278.784 172.517H271.028V164.761C271.028 164.522 270.981 164.284 270.889 164.063C270.798 163.841 270.663 163.64 270.494 163.471C270.324 163.301 270.123 163.167 269.902 163.075C269.68 162.983 269.443 162.936 269.203 162.936V162.936C268.964 162.936 268.726 162.983 268.505 163.075C268.283 163.167 268.082 163.301 267.913 163.471C267.743 163.64 267.609 163.841 267.517 164.063C267.425 164.284 267.378 164.522 267.378 164.761V164.761V172.517H259.622C259.382 172.517 259.145 172.565 258.924 172.656C258.702 172.748 258.501 172.882 258.332 173.052C258.162 173.221 258.028 173.423 257.936 173.644C257.844 173.866 257.797 174.103 257.797 174.342V174.342C257.797 174.827 257.989 175.291 258.331 175.633C258.674 175.975 259.138 176.168 259.622 176.168H267.378V183.924C267.378 184.163 267.425 184.401 267.517 184.622C267.609 184.844 267.743 185.045 267.913 185.214C268.082 185.384 268.283 185.518 268.505 185.61C268.726 185.702 268.964 185.749 269.203 185.749V185.749C269.443 185.749 269.68 185.702 269.902 185.61C270.123 185.518 270.324 185.384 270.494 185.214C270.663 185.045 270.798 184.844 270.889 184.622C270.981 184.401 271.028 184.163 271.028 183.924V176.168H278.784C279.024 176.168 279.262 176.12 279.483 176.029C279.704 175.937 279.906 175.802 280.075 175.633C280.245 175.464 280.379 175.262 280.471 175.041C280.562 174.819 280.61 174.582 280.61 174.342V174.342C280.61 173.858 280.417 173.394 280.075 173.052C279.733 172.71 279.269 172.517 278.784 172.517V172.517V172.517Z" fill="white"/>
<path d="M440.102 142.92C440.518 144.179 440.653 145.514 440.498 146.83C440.342 148.147 439.9 149.414 439.202 150.541C438.504 151.668 437.567 152.629 436.458 153.355C435.349 154.081 434.093 154.556 432.781 154.744L422.233 226.745L404.93 218.294L422.333 146.424C422.163 144.198 422.814 141.987 424.165 140.209C425.515 138.432 427.471 137.212 429.661 136.78C431.851 136.348 434.124 136.734 436.048 137.866C437.972 138.998 439.415 140.796 440.102 142.92L440.102 142.92Z" fill="#9E616A"/>
<path d="M314.116 373.52C314.886 372.44 315.41 371.205 315.651 369.902C315.893 368.598 315.845 367.257 315.512 365.974C315.179 364.69 314.569 363.495 313.724 362.473C312.88 361.451 311.821 360.627 310.623 360.058L317.74 283.472L302.835 291.111L298.181 364.912C297.359 366.988 297.327 369.293 298.091 371.39C298.854 373.488 300.361 375.233 302.325 376.294C304.289 377.355 306.574 377.658 308.747 377.147C310.92 376.636 312.83 375.345 314.115 373.52H314.116Z" fill="#9E616A"/>
<path d="M324.298 334.784L388.259 332.324L391.949 265.903H318.148L324.298 334.784Z" fill="#9E616A"/>
<path d="M312.427 569.355L323.357 569.354L328.556 527.197H312.425L312.427 569.355Z" fill="#9E616A"/>
<path d="M309.716 563.963L326.994 562.932V570.334L343.42 581.679C344.231 582.239 344.842 583.044 345.164 583.976C345.486 584.908 345.501 585.919 345.207 586.86C344.914 587.802 344.327 588.625 343.533 589.209C342.739 589.793 341.778 590.108 340.792 590.108H320.223L316.677 582.786L315.293 590.108H307.537L309.716 563.963Z" fill="#2F2E41"/>
<path d="M361.041 569.355L371.971 569.354L377.17 527.197H361.039L361.041 569.355Z" fill="#9E616A"/>
<path d="M323.411 319.192C323.411 319.192 304.273 334.642 314.647 389.82C313.068 390.008 314.857 393.122 314.857 393.122L316.354 438.082L317.51 443.235L313.664 451.549L315.25 460.583L310.362 542.575L328.419 544.91L345.699 459.767L348.99 450.194L352.291 441.803L350.51 432.856L351.971 418.968L361.933 372.139L364.371 453.357L360.968 461.111L362.862 469.622L358.643 474.14L356.976 550.13L376.23 551.031L392.161 474.428L390.926 464.652L393.045 457.424V440.541L396.676 432.573L404.59 389.126C404.59 389.126 406.977 355.168 389.558 315.207L323.411 319.192Z" fill="#2F2E41"/>
<path d="M331.21 210.701C331.21 210.701 307.038 215.481 302.873 236.095C298.708 256.71 296.029 303.358 296.029 303.358L296.941 309.855L320.323 315.276L335.246 249.914L331.21 210.701Z" fill="#3F3D56"/>
<path d="M386.373 217.659C386.373 217.659 388.823 214.226 402.544 213.696C403.109 213.674 402.41 212.553 402.41 212.553L409.009 180.301L430.999 192.476L427.287 226.289L391.152 267.39L386.373 217.659Z" fill="#3F3D56"/>
<path d="M372.666 313.81C362.313 313.811 346.73 312.668 323.27 309.185C321.759 308.957 320.361 308.252 319.279 307.173C318.197 306.094 317.488 304.697 317.257 303.186C316.491 302.378 315.992 301.352 315.829 300.25C315.666 299.148 315.846 298.022 316.345 297.026L316.367 296.984L315.836 296.357C315.014 295.391 314.531 294.183 314.461 292.917C314.391 291.65 314.738 290.396 315.449 289.346L308.184 237.371C307.446 232.21 308.575 226.955 311.366 222.551C314.158 218.148 318.429 214.885 323.411 213.349L326.093 212.514L336.236 199.248L336.436 199.25L368.997 199.684L379.563 213.102L396.644 217.129L396.688 217.389L400.654 240.303C402.717 252.221 397.986 256.909 391.949 267.39L393.721 296.824L394.525 298.285C394.971 299.094 395.12 300.033 394.947 300.94C394.774 301.847 394.289 302.665 393.577 303.253C394.116 304.792 394.153 306.463 393.682 308.025L393.264 309.406C393.265 309.445 393.153 310.007 392.251 310.691C390.625 311.926 385.957 313.81 372.666 313.81Z" fill="#3F3D56"/>
<path d="M358.33 563.963L375.608 562.932V570.334L392.034 581.679C392.846 582.239 393.457 583.044 393.778 583.976C394.1 584.908 394.115 585.919 393.821 586.86C393.528 587.802 392.941 588.625 392.147 589.209C391.353 589.793 390.393 590.108 389.407 590.108H368.837L365.291 582.786L363.907 590.108H356.151L358.33 563.963Z" fill="#2F2E41"/>
<path d="M376.476 170.337C378.735 156.422 369.284 143.31 355.368 141.052C341.452 138.793 328.341 148.244 326.082 162.16C323.824 176.076 333.275 189.187 347.191 191.446C361.107 193.704 374.218 184.253 376.476 170.337Z" fill="#9E616A"/>
<path d="M366.206 141.306C356.85 134.871 348.611 133.891 341.843 135.716C340.966 134.359 339.736 133.267 338.285 132.556C333.006 119.256 316.943 111.269 303.158 115.151C289.283 119.059 279.71 134.428 282.321 148.604C283.939 157.391 289.469 165 291.693 173.654C295.999 190.405 285.495 209.594 269.064 214.994C284.621 218.117 301.746 208.614 307.328 193.76C310.038 186.545 310.202 178.668 310.547 170.968C310.637 165.653 311.288 160.363 312.489 155.185C313.085 152.862 313.927 150.609 315.001 148.465C317.34 143.751 321.225 139.982 326.007 137.787C325.579 139.111 325.471 140.519 325.694 141.893C325.917 143.267 326.464 144.568 327.289 145.689C323.64 150.26 321.654 155.203 321.654 158.163C314.075 172.015 324.913 183.914 338.766 191.493C344.291 194.532 350.671 195.644 356.899 194.654L357.479 192.18L358.264 194.409L360.885 201.88C363.909 203.343 366.907 204.947 369.878 206.691C368.749 201.389 367.836 196.098 367.207 190.924C366.337 183.882 369.37 173.398 371.558 167.023C372.915 163.094 373.611 158.967 373.619 154.81V154.628L375.749 161.471L383.505 158.163C382.062 149.886 383.505 140.491 366.206 141.306Z" fill="#2F2E41"/>
<path d="M685.173 591.375H117.879C117.564 591.374 117.263 591.247 117.041 591.024C116.819 590.801 116.694 590.499 116.694 590.184C116.694 589.87 116.819 589.568 117.041 589.345C117.263 589.121 117.564 588.995 117.879 588.994H685.173C685.488 588.995 685.789 589.121 686.011 589.345C686.233 589.568 686.358 589.87 686.358 590.184C686.358 590.499 686.233 590.801 686.011 591.024C685.789 591.247 685.488 591.374 685.173 591.375V591.375Z" fill="#CCCCCC"/>
<path d="M266.704 353.243C279.303 353.243 289.516 343.03 289.516 330.431C289.516 317.832 279.303 307.619 266.704 307.619C254.105 307.619 243.892 317.832 243.892 330.431C243.892 343.03 254.105 353.243 266.704 353.243Z" fill="#E6E6E6"/>
<path d="M609.939 317.32H529.926C527.453 317.317 525.083 316.334 523.335 314.585C521.586 312.837 520.603 310.466 520.6 307.994V264.415C520.603 261.943 521.586 259.572 523.335 257.824C525.083 256.076 527.453 255.092 529.926 255.089H609.939C612.411 255.092 614.782 256.075 616.53 257.824C618.279 259.572 619.262 261.943 619.265 264.415V307.994C619.262 310.466 618.279 312.837 616.53 314.585C614.782 316.334 612.411 317.317 609.939 317.32V317.32Z" fill="#F2F2F2"/>
<path d="M611.118 299.619C617.808 299.619 623.232 294.195 623.232 287.504C623.232 280.813 617.808 275.39 611.118 275.39C604.427 275.39 599.003 280.813 599.003 287.504C599.003 294.195 604.427 299.619 611.118 299.619Z" fill="#6C63FF"/>
<path d="M616.148 286.487H612.029V282.368C612.029 282.241 612.004 282.115 611.956 281.997C611.907 281.879 611.835 281.772 611.745 281.682C611.655 281.592 611.549 281.521 611.431 281.472C611.313 281.424 611.187 281.399 611.06 281.399C610.803 281.399 610.557 281.501 610.375 281.682C610.193 281.864 610.091 282.111 610.091 282.368V286.487H605.972C605.715 286.487 605.468 286.589 605.287 286.771C605.105 286.952 605.003 287.199 605.003 287.456V287.456C605.003 287.583 605.028 287.709 605.077 287.827C605.125 287.945 605.197 288.051 605.287 288.141C605.377 288.231 605.483 288.303 605.601 288.352C605.719 288.4 605.845 288.425 605.972 288.425H610.091V292.544C610.091 292.671 610.116 292.798 610.165 292.915C610.213 293.033 610.285 293.14 610.375 293.23C610.465 293.32 610.572 293.391 610.689 293.44C610.807 293.488 610.933 293.513 611.06 293.513V293.513C611.317 293.513 611.564 293.411 611.745 293.23C611.927 293.048 612.029 292.801 612.029 292.544V288.425H616.148C616.405 288.425 616.652 288.323 616.834 288.141C617.016 287.96 617.118 287.713 617.118 287.456V287.456C617.118 287.329 617.093 287.203 617.044 287.085C616.995 286.968 616.924 286.861 616.834 286.771C616.744 286.681 616.637 286.609 616.519 286.561C616.402 286.512 616.276 286.487 616.148 286.487L616.148 286.487Z" fill="white"/>
<path d="M642.537 304.953H576.599C573.8 304.95 571.117 303.837 569.138 301.858C567.159 299.879 566.046 297.196 566.043 294.398V255.038C566.044 254.523 566.249 254.029 566.614 253.665C566.979 253.302 567.473 253.097 567.988 253.097C568.503 253.097 568.997 253.302 569.361 253.665C569.726 254.029 569.931 254.523 569.932 255.038V265.579L646.523 272.541C648.053 272.568 649.511 273.195 650.584 274.286C651.657 275.376 652.259 276.845 652.26 278.375C652.26 278.495 652.249 278.615 652.227 278.733L648.367 299.318C648.314 300.829 647.677 302.261 646.589 303.312C645.502 304.363 644.049 304.952 642.537 304.953V304.953ZM569.932 269.484V294.398C569.935 296.165 570.638 297.859 571.887 299.109C573.137 300.359 574.831 301.062 576.599 301.064H642.537C643.052 301.063 643.547 300.858 643.911 300.493C644.276 300.129 644.481 299.635 644.482 299.119C644.482 298.999 644.493 298.879 644.515 298.761L648.365 278.225C648.327 277.737 648.106 277.281 647.747 276.948C647.388 276.616 646.916 276.431 646.426 276.43C646.368 276.43 646.309 276.427 646.25 276.422L569.932 269.484Z" fill="#6C63FF"/>
<path d="M559.078 323.104C560.868 323.104 562.319 321.653 562.319 319.863C562.319 318.073 560.868 316.622 559.078 316.622C557.287 316.622 555.836 318.073 555.836 319.863C555.836 321.653 557.287 323.104 559.078 323.104Z" fill="#6C63FF"/>
<path d="M639.944 323.104C641.734 323.104 643.185 321.653 643.185 319.863C643.185 318.073 641.734 316.622 639.944 316.622C638.154 316.622 636.703 318.073 636.703 319.863C636.703 321.653 638.154 323.104 639.944 323.104Z" fill="#6C63FF"/>
<path d="M643.185 316.622H556.484C555.969 316.622 555.474 316.417 555.109 316.052C554.745 315.687 554.54 315.193 554.54 314.677C554.54 314.161 554.745 313.667 555.109 313.302C555.474 312.937 555.969 312.732 556.484 312.732H643.185C643.701 312.732 644.195 312.937 644.56 313.302C644.925 313.667 645.13 314.161 645.13 314.677C645.13 315.193 644.925 315.687 644.56 316.052C644.195 316.417 643.701 316.622 643.185 316.622V316.622Z" fill="#6C63FF"/>
<path d="M573.174 256.334H556.319C555.804 256.333 555.311 256.128 554.947 255.763C554.583 255.398 554.379 254.904 554.379 254.389C554.379 253.874 554.583 253.38 554.947 253.016C555.311 252.651 555.804 252.446 556.319 252.445H573.174C573.689 252.446 574.182 252.651 574.546 253.016C574.91 253.38 575.114 253.874 575.114 254.389C575.114 254.904 574.91 255.398 574.546 255.763C574.182 256.128 573.689 256.333 573.174 256.334V256.334Z" fill="#6C63FF"/>
<path d="M586.695 315.632C586.23 315.632 585.781 315.465 585.428 315.162L572.646 304.177C572.451 304.011 572.292 303.808 572.176 303.58C572.06 303.352 571.99 303.103 571.971 302.848C571.951 302.593 571.982 302.337 572.062 302.094C572.141 301.851 572.268 301.626 572.435 301.432C572.602 301.238 572.805 301.079 573.033 300.964C573.261 300.848 573.51 300.779 573.765 300.76C574.02 300.741 574.276 300.772 574.519 300.853C574.762 300.933 574.987 301.06 575.18 301.227L587.963 312.212C588.264 312.471 588.479 312.816 588.579 313.2C588.678 313.585 588.657 313.991 588.519 314.363C588.381 314.736 588.132 315.057 587.806 315.284C587.48 315.51 587.092 315.632 586.695 315.632V315.632Z" fill="#6C63FF"/>
<path d="M589.388 303.759C589.133 303.759 588.88 303.708 588.644 303.611C588.408 303.513 588.194 303.37 588.013 303.189C587.833 303.009 587.689 302.794 587.592 302.558C587.494 302.322 587.444 302.069 587.444 301.814V270.596C587.444 270.08 587.648 269.585 588.013 269.221C588.378 268.856 588.873 268.651 589.388 268.651C589.904 268.651 590.399 268.856 590.763 269.221C591.128 269.585 591.333 270.08 591.333 270.596V301.814C591.333 302.069 591.283 302.322 591.185 302.558C591.087 302.794 590.944 303.008 590.764 303.189C590.583 303.37 590.369 303.513 590.133 303.611C589.897 303.708 589.644 303.759 589.389 303.759H589.388Z" fill="#6C63FF"/>
<path d="M630.47 303.759C630.214 303.759 629.961 303.708 629.726 303.611C629.49 303.513 629.275 303.37 629.095 303.189C628.914 303.009 628.771 302.794 628.673 302.558C628.575 302.322 628.525 302.069 628.525 301.814V273.189C628.526 272.674 628.732 272.18 629.096 271.816C629.461 271.453 629.955 271.248 630.47 271.248C630.985 271.248 631.479 271.453 631.843 271.816C632.208 272.18 632.413 272.674 632.414 273.189V301.814C632.415 302.069 632.364 302.322 632.266 302.558C632.169 302.794 632.026 303.008 631.845 303.189C631.664 303.37 631.45 303.513 631.214 303.611C630.978 303.708 630.725 303.759 630.47 303.759H630.47Z" fill="#6C63FF"/>
</g>
<defs>
<clipPath id="clip0">
<rect width="803.052" height="591.375" fill="white"/>
</clipPath>
</defs>
</svg>
