<svg width="1133" height="709" viewBox="0 0 1133 709" fill="none" xmlns="http://www.w3.org/2000/svg">
<path d="M123.015 12.6607C86.275 -15.8259 0 12.6607 0 12.6607V604.971C0 604.971 162.269 654.204 238.529 604.971C347.244 534.786 108.852 318.344 238.529 292.018C267.135 286.21 285.887 283.119 313.539 292.018C392.622 317.466 272.191 422.395 313.539 489.454C386.402 607.629 649.128 359.319 691.585 489.454C704.333 528.529 680.441 554.437 691.585 593.926C734.491 745.965 1099.77 748.745 1128.64 593.926C1133.59 567.355 1135.25 551.155 1128.64 524.892C1100.1 411.611 845.443 635.089 805.099 524.892C791.506 487.762 817.055 462.167 805.099 424.563C764.24 296.053 527.717 525.844 432.553 424.563C355.42 342.47 503.197 220.664 416.551 147.047C332.323 75.4832 174.071 241.506 123.015 147.047C97.6178 100.058 166.625 46.474 123.015 12.6607Z" fill="#FBA353"/>
</svg>
