<svg width="1123" height="1011" viewBox="0 0 1123 1011" fill="none" xmlns="http://www.w3.org/2000/svg">
<path d="M1015.62 261.998C1022.46 375.954 1137.51 487.605 1121.09 716.887C1104.67 946.169 724.177 771.327 502.961 716.887C84.9525 614.017 -187.706 257.22 156.26 88.4176C267.838 33.6604 357.199 16.6432 502.961 2.30842C747.921 -21.782 1008.78 148.043 1015.62 261.998Z" fill="#1B67B5"/>
<path d="M314.17 490.237L194.572 121.168C194.572 121.168 119.036 -55.0204 59.2367 121.168C-0.562523 297.357 194.572 419.762 262.239 659.007C329.906 898.253 351.938 659.007 351.938 659.007L507.73 297.357L597.429 659.007C597.429 659.007 657.228 933.491 717.027 659.007C776.827 384.524 942.062 393.797 836.626 121.168C731.19 -151.46 717.027 121.168 717.027 121.168L650.934 490.237C650.934 490.237 597.429 208.335 507.73 121.168C418.032 34.0014 328.333 15.4552 418.032 121.168C507.73 226.881 314.17 490.237 314.17 490.237Z" fill="#FF8413"/>
<path d="M837.611 894.013C837.611 894.013 745.91 603.931 844.038 555.595C922.591 516.902 1053.52 570.803 1038.1 674.847C1026.83 750.881 908.296 787.653 908.296 787.653V894.013H837.611Z" fill="#FF7A00"/>
<path d="M873.336 716.347V615.646C873.336 615.646 974.019 577.721 971.079 658.537C968.177 738.286 873.336 716.347 873.336 716.347Z" fill="#1B67B5"/>
</svg>
