<svg width="1920" height="1176" viewBox="0 0 1920 1176" fill="none" xmlns="http://www.w3.org/2000/svg">
<path d="M123.015 19.2818C86.275 -24.1022 0 19.2818 0 19.2818V921.349C0 921.349 162.269 996.329 238.529 921.349C347.244 814.46 108.852 484.827 238.529 444.732C267.135 435.888 285.887 431.181 313.539 444.732C392.622 483.49 272.191 643.293 313.539 745.422C386.402 925.397 649.128 547.23 691.585 745.422C704.333 804.932 680.441 844.388 691.585 904.528C734.491 1136.08 1099.77 1140.31 1128.64 904.528C1133.59 864.061 1135.25 839.389 1128.64 799.392C1100.1 626.87 845.443 967.219 805.099 799.392C791.506 742.844 817.055 703.864 805.099 646.594C764.24 450.878 527.717 800.842 432.553 646.594C355.42 521.57 503.197 336.063 416.551 223.947C332.323 114.958 174.071 367.805 123.015 223.947C97.6178 152.385 166.625 70.7783 123.015 19.2818Z" fill="#0094FF" fill-opacity="0.08"/>
<path d="M1804.17 1155.53C1839.07 1201.59 1921 1155.53 1921 1155.53V197.89C1921 197.89 1766.89 118.291 1694.47 197.89C1591.23 311.364 1817.62 661.305 1694.47 703.869C1667.3 713.258 1649.5 718.256 1623.24 703.869C1548.13 662.724 1662.5 493.076 1623.24 384.656C1554.04 193.593 1304.53 595.057 1264.21 384.656C1252.1 321.48 1274.79 279.592 1264.21 215.748C1223.46 -30.0669 876.56 -34.563 849.142 215.748C844.436 258.707 842.859 284.9 849.142 327.361C876.242 510.511 1118.09 149.195 1156.4 327.361C1169.31 387.392 1145.05 428.774 1156.4 489.572C1195.21 697.345 1419.83 325.821 1510.21 489.572C1583.46 622.298 1443.12 819.233 1525.4 938.257C1605.4 1053.96 1755.69 785.536 1804.17 938.257C1828.29 1014.23 1762.76 1100.86 1804.17 1155.53Z" fill="#0094FF" fill-opacity="0.08"/>
<path d="M508 276.776C492.596 199.201 521.824 131.18 580 91.4667C630.112 57.2581 731.759 22.9555 728 91.4667C725.696 133.447 662.095 130.762 668 172.242C674.294 216.457 734.962 182.525 756 219.758C788.504 277.282 754.159 421.412 704 386.061C682.758 371.09 690.434 336.563 668 324.291C631.742 304.458 619.591 392.116 580 386.061C534.751 379.139 518.474 329.523 508 276.776Z" fill="#0094FF" fill-opacity="0.08"/>
<path d="M348 1103.54C339.163 1061.55 369.997 1038.82 396 1008.51C411.163 990.83 440 970.497 440 970.497C478.422 959.996 525.452 990.217 524 1037.02C522.939 1071.21 500.494 1085.54 476 1103.54C433.493 1134.78 360.124 1161.15 348 1103.54Z" fill="#0094FF" fill-opacity="0.08"/>
</svg>
